<?xml version="1.0" encoding="utf-8"?>
<!-- Generator: Adobe Illustrator 21.1.0, SVG Export Plug-In . SVG Version: 6.00 Build 0)  -->
<svg version="1.1" id="Layer_1" xmlns="http://www.w3.org/2000/svg" xmlns:xlink="http://www.w3.org/1999/xlink" x="0px" y="0px"
	 width="200px" height="120.5px" viewBox="0 0 200 120.5" style="enable-background:new 0 0 200 120.5;" xml:space="preserve">
<style type="text/css">
	.st0{fill:#DCDC42;}
</style>
<g id="レイヤー_2">
	<g id="レイヤー_1-2">
		<path class="st0" d="M199.8,5.6C199.1,0.1,189.1,0,189.1,0L45.2,3.5c0,0-17.6-2.1-23.6,0c-3.6,1.3-6.3,4.2-7.4,7.9
			c0,0-0.9,7.4,4.4,8.6s11.3-0.7,18.5-1.9s32.5-0.9,32.5-0.9L52.5,65.4c-12.7,1.8-24.8,6.5-35.3,13.8c-12.4,8.8-24.2,25.6-12,35.5
			C36.1,139.8,60.8,76,60.8,76c4.1-2.6,8.7-4.5,13.4-5.7c4.1-1.1,8-2.4,11.9-3.9c0,0-15.2,23,0.4,29.2c20,8,23.7-20.8,23.7-20.8
			c4.3-0.2,8.7-0.8,12.9-1.6c4.6-1.2,11-4.8,11-4.8s-13.3,23.7,1.1,28c18.2,5.4,21.2-16.7,21.2-16.7s3.2,3.3,11.8,1.2
			s27.1-21.9,23.6-23.8c-1.7-1-3.5,1.9-3.5,1.9s-1.2,3.4-12.5,9.9s-16,1.5-16,1.5s-3-6.6-9.5-3.6s-3.7,11.3-3.7,11.3
			s0.2,9.5-5.8,7.6s3.7-19,3.7-19l2.4-4c0,0,8.9-4.2,11.8-5.1c23.5-8.2,24-26.1,15.6-30.2c-5.9-2.9-12.7-1.8-22,7S139,58.9,139,58.9
			s-7.3,6-15.3,7c-4.2,0.3-8.4,0.3-12.7,0.1c0,0-4.7-0.9-7.4,1.5c-1.9,1.7-1.9,6.5-1.9,6.5s-3.7,9.4-7.8,8.5c-7.6-1.7,7-20.5,7-20.5
			c4.3-0.7,8.5-1.8,12.6-3.1c22.6-7.5,31.1-28.2,17.6-34.9c-7-3.5-13.8-2.4-24.6,7.5c-10.1,9.1-15.4,26-15.4,26s-5.1,1.5-13,3.8
			S67,63.4,67,63.4l20.2-45.8c0,0,83.3-3.2,89-3S201.4,17.5,199.8,5.6z M39.3,89.1c-7.2,7.6-13.2,10.5-16.2,6.6
			c-2.5-3.2,1-7.3,7-10.8s16-4.6,16-4.6C44.3,83.6,42,86.5,39.3,89.1z M160.6,44c4.6-5.2,7-8.1,8.9-7.3c2.6,1-2.7,8.6-7.3,11.2
			c-3.5,2-8.8,5.2-8.8,5.2C155.6,49.9,158,46.9,160.6,44z M116.6,40.3c6.4-6.5,7.7-7.9,9.7-7c2,0.9-1.1,7-6.5,11.6
			c-3.1,2.7-12.7,8.2-12.7,8.2C109.8,48.5,112.9,44.2,116.6,40.3L116.6,40.3z"/>
		<path class="st0" d="M191.5,103.7l-25.4,1.7c0,0-48.6,0.5-57.4,0.8s-37,0.3-37,0.3s-7.9,2.4-7.1,7.1c0.8,4.6,2.6,6.1,6.8,6.3
			s44.7-1,44.7-1l39.3-0.7c0,0,23.6-2,29.9-1.2s15.5,0.4,14.6-6.6C199,102.8,191.5,103.7,191.5,103.7z"/>
	</g>
</g>
</svg>
