<?xml version="1.0" encoding="utf-8"?>
<!-- Generator: Adobe Illustrator 21.1.0, SVG Export Plug-In . SVG Version: 6.00 Build 0)  -->
<svg version="1.1" id="Layer_1" xmlns="http://www.w3.org/2000/svg" xmlns:xlink="http://www.w3.org/1999/xlink" x="0px" y="0px"
	 viewBox="0 0 182.6 156.4" style="enable-background:new 0 0 182.6 156.4;" xml:space="preserve">
<style type="text/css">
	.st0{fill:#DCDC42;}
</style>
<title>アセット 1</title>
<g id="レイヤー_2">
	<g id="レイヤー_1-2">
		<path class="st0" d="M77.2,69c-2.9,0-3.9,1-3.9,3.7v0.6h6.9c0.6,0,1.1,0.2,1.6,0.5c0.4,0.4,0.7,1,0.7,1.6c0,1.1-0.9,2.1-2.1,2.1
			c-0.1,0-0.1,0-0.2,0h-6.7v11.7c0.2,1.5-4.4,1.3-4.4,0V77.5h-2.9c-0.6,0-1.2-0.2-1.7-0.5c-0.4-0.4-0.7-1-0.6-1.6c0-1.4,0.7-2,2.2-2
			h2.8v-0.8c0-5.3,2.9-7.7,9.7-7.7c3.4,0,5.1,0.9,5.1,2.7c-0.1,1.2-1.1,2.1-2.3,2L77.2,69z"/>
		<path class="st0" d="M85.8,80.8c0-6.2,4.8-10.4,11.6-10.4c3.1-0.1,6.1,0.9,8.4,2.9c2.2,1.9,3.4,4.6,3.3,7.5
			c0,5.7-5.7,9.8-11.7,9.8C90.8,90.7,85.8,86.4,85.8,80.8z M90.5,80.8c0,3.4,3.3,6,6.8,6c3.9,0,6.9-2.8,6.9-6
			c-0.1-3.8-3.3-6.8-7.1-6.6C93.5,74.4,90.6,77.3,90.5,80.8z"/>
		<path class="st0" d="M114.9,71.6c0.2-1.3,4.3-1.5,4.3,0v3c2.1-2.5,5.1-3.9,8.3-4c2.7,0,4.8,1.3,4.8,3.1c-0.1,1.4-1.2,2.5-2.5,2.6
			c-0.8-0.1-1.5-0.3-2.2-0.7c-1.1-0.5-1.2-0.7-1.4-0.7c-1.5,0.1-2.9,0.7-4,1.7c-1,0.9-2.1,1.8-3,2.8v9.7c-0.5,1.9-4.2,1.3-4.3,0
			L114.9,71.6z"/>
		<path class="st0" d="M15.6,44.7c0.1,2.3,5.8,3.3,6.6,0V11.1L15.6,11V44.7z"/>
		<path class="st0" d="M181.8,0.9c-0.6-0.6-1.4-0.9-2.2-0.9H3.1C1.3,0,0.3,1.2,0,3.5c0.2,1.9,1.8,3.3,3.7,3.4h175.5
			c2.3,0,3.4-1.1,3.4-3.3C182.6,2.6,182.3,1.7,181.8,0.9z"/>
		<path class="st0" d="M43.7,6.3v38.6c0.1,2.2,5.4,3.1,6.2,0V6.3C49.9,3.8,44,4.2,43.7,6.3z"/>
		<path class="st0" d="M60.2,14.8c-2.3,0-4.5,0.6-6.4,1.8l-0.1,7.1c1.5-1.3,3.5-2,5.5-2c2,0.1,4,2.4,4,7.3v16.2c0,2,6,2.1,6.2,0
			V27.7C69.4,19.7,65.2,14.8,60.2,14.8z"/>
		<path class="st0" d="M98.3,14.6c-2.3,0-4.4,0.3-8.3,3.5L90,25.6c1.8-1.7,4.7-4,6.4-4c0.6,0.5,1.3,0.9,2,1.2c3.3,1.4,6.6-1,6.6-3.1
			C105,16.3,102.2,14.6,98.3,14.6z"/>
		<path class="st0" d="M80,16.1v28.8c0.1,2.2,5.4,3.1,6.2,0V16.1C86.2,13.6,80.3,14,80,16.1z"/>
		<path class="st0" d="M178.8,110.4H17.3c-2.4,0.1-3.4,2.6-3.1,7V153c-0.1,2.7,6.2,2.9,6.8,0v-35.6h154.7c4.3-0.3,6-0.5,6.2-3.2
			C182.2,111.7,180.9,110.4,178.8,110.4z"/>
		<path class="st0" d="M37.2,127.8H24v6.2h13.2C39.4,133.6,40.2,128.8,37.2,127.8z"/>
		<path class="st0" d="M46.7,117.3c0.2-2,6.5-2.5,6.5-0.1v36.4c-0.7,2.9-6.4,2.2-6.5,0.1V117.3z"/>
		<path class="st0" d="M110.9,155.7c-0.8-0.7-1.3-1.6-1.7-2.6l-10.7-24.2c0-4.4,4.5-4.4,6.3-1.8l8.4,21.2l8.8-21.6
			c2.1-2.4,5.8-1.5,5.8,2.2l-10.5,24.2c-0.9,2.2-2.3,3.3-4.2,3.3C112.4,156.5,111.5,156.2,110.9,155.7z"/>
		<path class="st0" d="M138.8,121.9c2-0.1,3.8,1.5,3.8,3.6c-0.1,2-1.8,3.6-3.8,3.5c0,0,0,0,0,0c-2,0.1-3.7-1.5-3.8-3.5
			c0,0,0,0,0-0.1C135.1,123.5,136.8,121.9,138.8,121.9C138.8,121.9,138.8,121.9,138.8,121.9z M135.5,133.2c0.2-2,5.8-2.4,5.8,0v21.3
			c-0.7,2.9-5.8,2-5.8,0V133.2z"/>
		<path class="st0" d="M162,125.7c1.2-0.5,2.5-0.7,3.8-0.5c6.2,0.2,11.3,4.6,11.3,12.1v16.5c-0.2,2-5.9,1.9-5.9,0v-15.3
			c0-4.6-3-6.6-6.4-6.9c-0.7-0.1-1-0.2-2.8,0.6V125.7z M158.6,134.6v18.9c-0.7,2.9-5.8,2-5.8,0v-26.8c0.2-2,5.8-2.3,5.8,0v0.9V134.6
			z"/>
		<path class="st0" d="M117.1,27.9L117.1,27.9l0.1-0.2L117.1,27.9z"/>
		<path class="st0" d="M139.4,37c0.3,0.1-1.4,0.9-5.2,2.1c-8,2.7-14.3,3.7-17.3-4.9c-0.4-2.1-0.3-4.4,0.3-6.5l0,0
			c1.7-4.8,4.7-7,9.5-7c4.2,0,7.7,3,8.4,7.2H121c-0.3,0.9-0.4,1.9-0.5,2.9c0,2.8,0.4,3.3,0.4,3.3h16c4,0,5.5-1.1,5.5-4.1
			c0.1-4.2-1.6-8.2-4.6-11c-3-2.9-7-4.5-11.2-4.5c-5,0-9.1,1.6-12.2,4.8s-4.6,7.4-4.6,12.6c-0.2,4.1,1.4,8.1,4.3,11
			c3,3,6.8,4.5,11.8,4.5c4.4,0.1,8.7-0.9,12.5-3c2.4-1.4,3.7-3,3.7-4.6C142,38.1,141,37.1,139.4,37z"/>
		<path class="st0" d="M120.5,34.1"/>
		<path class="st0" d="M120.5,27.9"/>
		<path class="st0" d="M117.2,27.9"/>
		<path class="st0" d="M117.2,27.8"/>
		<polygon class="st0" points="117.2,27.8 117.2,27.8 117.2,27.8 		"/>
		<path class="st0" d="M156.1,27L156.1,27l0.1-0.2L156.1,27z"/>
		<path class="st0" d="M178.4,36c0.3,0.1-1.4,0.9-5.2,2.1c-8,2.7-14.3,3.7-17.3-4.9c-0.4-2.1-0.3-4.4,0.3-6.5l0,0
			c1.7-4.8,4.7-7,9.5-7c4.2,0,7.8,3.1,8.4,7.2H160c-0.3,0.9-0.4,1.9-0.5,2.9c0,2.8,0.4,3.3,0.4,3.3H176c4,0,5.5-1.1,5.5-4.1
			c0.1-4.2-1.6-8.2-4.6-11c-3-2.9-7-4.5-11.2-4.5c-5,0-9.1,1.6-12.2,4.8s-4.6,7.3-4.6,12.6c-0.2,4.1,1.4,8.1,4.3,11
			c3,3,6.8,4.5,11.8,4.5c4.4,0.1,8.7-0.9,12.5-3c2.4-1.4,3.7-3,3.7-4.6C181,37.1,180,36.1,178.4,36z"/>
		<path class="st0" d="M159.5,33.1"/>
		<path class="st0" d="M159.5,27"/>
		<path class="st0" d="M156.2,27"/>
		<path class="st0" d="M156.2,26.8"/>
		<polygon class="st0" points="156.2,26.8 156.2,26.8 156.2,26.8 		"/>
		<path class="st0" d="M73,150.4c-2.1-0.1-6.8-2.3-6.8-8.5c-0.2-4.2,2.8-8,7-8.6c3.1-0.2,6.1,0.8,8.5,2.8v-6.6
			c-1.9-1.6-4.4-2.5-6.9-2.4c-3.9,0-7.6,1.5-10.4,4.2c-2.8,2.7-4.3,6.4-4.3,10.2c0,4,1.3,8,4,10.5c2.9,2.7,6.8,4.2,10.8,4
			c3.7-0.2,4.7-0.8,6.9-2.4v-6C79.3,149.6,76.2,150.7,73,150.4z"/>
		<path class="st0" d="M89.7,126.8c-1.3-0.5-2.8-0.3-3.9,0.5c-0.4,0.3-0.6,1.2-0.7,1.9v24.8c0,0.9,0.7,1.7,1.7,1.9l2.1-0.1
			c1.3,0.1,2.5-0.9,2.6-2.3c0-0.1,0-0.2,0-0.3v-23.4C91.4,128.3,91.4,127.5,89.7,126.8z"/>
		<path class="st0" d="M85,142.3"/>
		<path class="st0" d="M81.8,153.6"/>
	</g>
</g>
</svg>
